<svg width="528" height="590" viewBox="0 0 528 590" fill="none" xmlns="http://www.w3.org/2000/svg">
<path fill-rule="evenodd" clip-rule="evenodd" d="M0 0L0.00164402 22.4298C0.0050624 69.0678 45.316 102.269 89.7876 88.2194L355.363 4.31852C407.211 -12.0613 460.012 25.6009 462.007 79.3545C462.046 80.4148 462.066 81.4813 462.065 82.5538L462.007 190H461.997V189.996H435.006V89.9322C435.006 49.3597 395.576 20.4842 356.896 32.7307L42.207 132.365C17.0778 140.321 0 163.641 0 190V0ZM435.006 189.996H434.997V589.996H461.997V190H435.006V189.996ZM434.995 523.996C434.995 560.447 405.446 589.996 368.995 589.996H434.995V523.996ZM528 589.996C491.549 589.996 462 560.447 462 523.996V589.996H528Z" fill="#F8F9FA"/>
</svg>
