<?xml version="1.0" encoding="utf-8"?>
<!-- Generator: Adobe Illustrator 27.0.0, SVG Export Plug-In . SVG Version: 6.00 Build 0)  -->
<svg version="1.1" id="Layer_1" xmlns="http://www.w3.org/2000/svg" xmlns:xlink="http://www.w3.org/1999/xlink" x="0px" y="0px"
	 viewBox="0 0 400 200" style="enable-background:new 0 0 400 200;" xml:space="preserve">
<style type="text/css">
	.st0{fill:#D71F29;}
	.st1{fill:#FFFFFF;}
	.st2{clip-path:url(#SVGID_00000103973838002110317140000018431802460291881375_);fill:#EE2F2A;}
</style>
<g>
	<path class="st0" d="M287.5,97.58c-0.12,2.83-0.19,5.53-0.35,8.22c-0.21,3.49-0.56,6.97-1.06,10.44c-0.36,2.44-0.96,4.82-1.5,7.21
		c-0.65,2.9-1.39,5.77-2.41,8.56c-2.15,5.91-5.26,11.28-9.03,16.29c-4.21,5.58-9.07,10.56-14.34,15.14
		c-4.62,4.01-9.43,7.79-14.55,11.16c-2.6,1.72-5.33,3.19-8.32,4.13c-1.5,0.48-3.03,0.82-4.62,0.86c-0.28,0.01-0.55,0.01-0.83-0.03
		c-0.7-0.1-0.99-0.58-0.73-1.23c0.32-0.79,0.81-1.46,1.58-1.91c4.98-2.87,9.81-5.96,14.36-9.48c5.91-4.58,11.19-9.78,15.63-15.81
		c4.88-6.63,8.49-13.9,10.93-21.76c1.31-4.21,2.26-8.5,2.91-12.86c0.9-5.99,1.24-12.01,1.13-18.05c-0.05-2.75-0.26-5.5-0.55-8.24
		c-0.57-5.33-1.53-10.58-3.01-15.73c-1.74-6.08-4.15-11.87-7.55-17.21c-3.09-4.86-6.89-9.07-11.48-12.56
		c-6.19-4.69-12.69-8.87-19.7-12.23c-2.79-1.33-5.62-2.55-8.63-3.29c-2.15-0.53-4.33-0.93-6.51-1.35c-1.7-0.33-3.41-0.55-5.15-0.52
		c-0.45,0.01-0.9,0.06-1.34,0.16c-0.7,0.16-0.9,0.48-0.85,1.2c0.06,0.73,0.46,1.23,1.04,1.62c0.68,0.46,1.45,0.71,2.25,0.84
		c1.05,0.17,2.1,0.36,3.15,0.38c2.83,0.06,5.52,0.7,8.17,1.61c4.03,1.38,7.81,3.31,11.51,5.39c4.93,2.78,9.55,6,13.74,9.83
		c4.32,3.95,7.89,8.47,10.76,13.58c1.48,2.65,2.87,5.33,3.84,8.21c1.1,3.25,1.88,6.57,2.48,9.94c0.52,2.88,0.9,5.79,1.16,8.7
		c0.19,2.21,0.32,4.43,0.44,6.65c0.21,3.93,0.25,7.86,0.15,11.8c-0.22,8.53-2.12,16.7-5.55,24.51c-2.38,5.42-5.39,10.48-8.83,15.29
		c-1.84,2.57-3.68,5.16-5.74,7.57c-4.45,5.21-9.64,9.59-15.37,13.33c-7.86,5.14-16.37,8.83-25.39,11.35
		c-3.97,1.11-7.99,2-12.08,2.58c-2.27,0.32-4.56,0.58-6.83,0.85c-3.84,0.46-7.69,0.44-11.54,0.29c-1.47-0.06-2.94-0.2-4.4-0.38
		c-2.18-0.28-4.36-0.55-6.52-0.95c-4.62-0.86-9.12-2.14-13.51-3.85c-3.06-1.18-6.03-2.57-8.91-4.16c-2.87-1.58-5.47-3.56-7.96-5.68
		c-4.08-3.46-7.77-7.3-10.91-11.63c-2.09-2.88-3.9-5.91-5.07-9.29c-0.46-1.34-0.87-2.7-1.03-4.11c-0.08-0.74-0.13-1.5,0.1-2.22
		c0.11-0.35,0.28-0.71,0.51-0.98c0.48-0.55,1.32-0.88,2.11-0.28c0.52,0.41,1.04,0.86,1.45,1.37c0.97,1.21,1.92,2.44,2.8,3.72
		c3.8,5.45,8.21,10.35,13.05,14.88c4.9,4.58,10.52,8.02,16.69,10.58c4.65,1.93,9.4,3.54,14.32,4.63c2.7,0.6,5.43,1.08,8.22,1.09
		c0.59,0.01,1.18-0.06,1.77-0.09c0.08,0,0.15-0.03,0.23-0.05c0.57-0.15,0.92-0.54,0.93-1c0.01-0.47-0.33-0.85-0.93-0.98
		c-1.05-0.23-2.11-0.45-3.17-0.64c-3.42-0.62-6.84-1.2-10.17-2.21c-3.14-0.95-6.07-2.36-8.92-3.95
		c-7.49-4.19-14.32-9.27-20.41-15.33c-2.37-2.36-4.65-4.83-6.46-7.65c-3.6-5.59-6.29-11.6-7.74-18.12c-0.3-1.33-0.46-2.71-0.59-4.08
		c-0.21-2.33-0.39-4.66-0.49-7c-0.11-2.67-0.17-5.34-0.17-8.02c0-3.36,0.04-6.73,0.17-10.09c0.09-2.47,0.24-4.95,0.57-7.41
		c0.27-2,0.76-3.98,1.27-5.93c3.02-11.5,8.91-21.33,17.35-29.67c2.11-2.09,4.28-4.12,6.65-5.92c3-2.26,6.26-4.06,9.62-5.71
		c4.48-2.21,9.12-4.05,13.76-5.86c0.75-0.29,1.49-0.6,2.24-0.91c0.16-0.07,0.33-0.14,0.48-0.22c0.38-0.2,0.53-0.43,0.48-0.72
		c-0.06-0.34-0.34-0.6-0.75-0.64c-0.69-0.07-1.36,0.06-2.05,0.18c-3.07,0.56-6.07,1.41-9,2.5c-8.95,3.35-16.95,8.24-23.88,14.83
		c-7.9,7.5-13.5,16.47-17.08,26.73c-1.53,4.39-2.64,8.88-3.39,13.47c-0.52,3.22-0.9,6.46-1.07,9.72c-0.07,1.36-0.1,2.71-0.17,4.07
		c-0.03,0.52-0.1,1.06-0.24,1.57c-0.36,1.25-1.28,1.63-2.42,0.98c-1.42-0.8-2.26-2.07-2.53-3.66c-0.65-3.83-0.96-7.69-0.89-11.57
		c0.14-8.25,1.8-16.19,5.04-23.79c2.97-6.99,7.07-13.28,12.06-18.99c6.34-7.26,13.81-13.11,22.27-17.72
		c7.57-4.12,15.54-7.24,23.82-9.6c4.63-1.32,9.31-2.39,14.06-3.15c2.93-0.47,5.85-0.95,8.78-1.37c1.75-0.25,3.51-0.39,5.27-0.57
		c3.43-0.36,6.87-0.34,10.31-0.18c1.78,0.08,3.56,0.27,5.33,0.51c2.06,0.28,4.11,0.63,6.16,1.01c3.69,0.68,7.3,1.69,10.89,2.77
		c3.86,1.16,7.64,2.52,11.26,4.31c7.26,3.6,13.55,8.48,18.92,14.53c5,5.63,8.97,11.94,12.14,18.75c3.36,7.21,5.76,14.74,7.23,22.56
		c0.56,3,0.95,6.02,0.99,9.07C287.43,92.92,287.47,95.32,287.5,97.58"/>
	<path class="st1" d="M236.75,78.75v0.01c2.2,0,4.4-0.03,6.61-0.01c1.57,0.02,3.14,0.08,4.72,0.16c1.01,0.05,2.36-0.56,2.89-1.94
		c0.38-0.98,0.27-1.87-0.57-2.56c-0.59-0.49-1.19-0.98-1.85-1.35c-1.63-0.9-3.28-1.79-4.96-2.58c-2.91-1.37-5.8-2.81-8.86-3.85
		c-3.99-1.35-8-2.68-11.99-4.05c-1.5-0.52-1.28-0.13-1.72-1.83c-0.62-2.42-1.12-4.86-1.69-7.29c-0.17-0.72-0.35-1.45-0.61-2.15
		c-0.31-0.84-0.94-1.3-1.87-1.21c-0.6,0.06-1.21,0.14-1.8,0.26c-4.51,0.84-9.02,1.68-13.53,2.53c-5.38,1.01-10.75,2.05-16.13,3.03
		c-0.85,0.15-1.46,0.5-1.93,1.17c-0.22,0.31-0.46,0.59-0.67,0.9c-0.77,1.09-1.54,2.19-2.3,3.29c-1.39,2.03-2.78,4.05-4.16,6.09
		c-0.33,0.49-0.73,0.84-1.31,1.03c-0.47,0.15-0.91,0.37-1.37,0.54c-8.32,3.16-16.28,7.07-23.88,11.72c-1.14,0.7-2.26,1.43-3.37,2.18
		c-0.45,0.31-0.89,0.66-1.27,1.05c-0.69,0.73-0.5,1.83,0.39,2.3c0.29,0.15,0.63,0.26,0.95,0.27c0.55,0.02,1.1-0.03,1.64-0.1
		c1.69-0.22,3.38-0.46,5.07-0.68c1.5-0.2,3-0.41,4.49-0.6c1.54-0.2,3.07-0.41,4.61-0.6c1.52-0.2,3.03-0.39,4.55-0.58
		c1.58-0.2,3.15-0.41,4.73-0.6c1.58-0.2,3.15-0.39,4.73-0.58c1.29-0.15,2.57-0.31,3.86-0.46c1.63-0.2,3.27-0.4,4.91-0.59
		c1.7-0.2,3.4-0.38,5.09-0.56c2.11-0.23,4.21-0.49,6.32-0.7c1.74-0.17,3.48-0.31,5.22-0.44c2.27-0.17,4.54-0.33,6.82-0.47
		c1.98-0.12,3.96-0.2,5.95-0.28c2.63-0.1,5.27-0.18,7.9-0.25c2.4-0.06,4.8-0.11,7.2-0.15C231.95,78.77,234.35,78.77,236.75,78.75"/>
	<path class="st1" d="M182.92,136.98c-0.05,0.26-0.07,0.4-0.1,0.53c-0.44,1.98-0.81,3.97-0.71,6.01c0.03,0.67,0.13,1.33,0.44,1.94
		c0.25,0.5,0.63,0.83,1.18,0.99c1.3,0.36,2.35-0.03,3.24-0.99c0.61-0.66,1-1.45,1.31-2.29c0.48-1.29,0.76-2.64,1.01-3.99
		c0.32-1.78,0.66-3.56,0.97-5.34c0.06-0.35,0.23-0.55,0.53-0.71c0.53-0.3,1.06-0.61,1.56-0.96c0.64-0.44,1.28-0.91,1.88-1.41
		c0.25-0.2,0.45-0.5,0.58-0.8c0.21-0.48-0.04-0.87-0.56-0.93c-0.26-0.03-0.55,0.01-0.81,0.08c-0.62,0.19-1.23,0.42-1.84,0.62
		c-0.12,0.04-0.24,0.05-0.46,0.08c0.13-0.57,0.23-1.06,0.36-1.55c0.58-2.31,1.18-4.61,1.73-6.92c0.14-0.59,0.2-1.2,0.21-1.81
		c0.01-0.8-0.5-1.25-1.29-1.15c-0.33,0.04-0.69,0.2-0.94,0.41c-0.43,0.37-0.85,0.77-1.17,1.24c-0.62,0.9-1.23,1.83-1.76,2.79
		c-1.48,2.69-2.61,5.54-3.62,8.44c-0.12,0.34-0.28,0.52-0.64,0.58c-2.25,0.47-4.49,0.95-6.74,1.42c-0.14,0.03-0.29,0-0.48,0
		c0.06-0.21,0.1-0.36,0.15-0.5c0.52-1.49,1.06-2.96,1.56-4.45c0.63-1.88,1.26-3.76,1.84-5.66c0.23-0.75,0.38-1.53,0.28-2.33
		c-0.18-1.38-1.02-1.77-2.13-0.94c-0.56,0.42-1.08,0.92-1.51,1.48c-0.83,1.09-1.63,2.22-2.36,3.38c-1.95,3.15-3.55,6.48-5.02,9.88
		c-0.16,0.38-0.39,0.53-0.77,0.59c-0.91,0.14-1.82,0.29-2.73,0.47c-0.91,0.18-1.81,0.38-2.64,0.81c-0.51,0.27-0.99,0.57-1.34,1.04
		c-0.47,0.63-0.51,1.35-0.01,1.96c0.29,0.36,0.67,0.67,1.06,0.91c0.89,0.54,1.89,0.75,2.91,0.86c0.29,0.03,0.57,0.07,0.89,0.11
		c-0.06,0.23-0.11,0.4-0.15,0.57c-0.42,1.56-0.88,3.1-1.25,4.67c-0.36,1.49-0.58,3.02-0.47,4.56c0.04,0.6,0.17,1.21,0.37,1.77
		c0.25,0.73,0.8,1.19,1.59,1.35c1,0.21,1.9-0.02,2.64-0.67c0.47-0.41,0.88-0.91,1.22-1.43c0.72-1.09,1.12-2.34,1.46-3.59
		c0.71-2.6,1.41-5.19,2.11-7.79c0.1-0.38,0.27-0.59,0.68-0.69c2.17-0.57,4.27-1.32,6.36-2.12
		C181.99,137.35,182.4,137.19,182.92,136.98"/>
	<path class="st1" d="M235.31,102.78c0.52,0.69,1.19,1.03,1.92,1.21c2.32,0.59,4.52,0.17,6.62-0.87c0.26-0.13,0.49-0.33,0.69-0.55
		c0.43-0.48,0.39-1.1-0.11-1.51c-0.23-0.18-0.49-0.35-0.76-0.42c-0.6-0.17-1.21-0.31-1.83-0.39c-1.19-0.15-1.78-0.93-1.51-2.09
		c0.09-0.4,0.22-0.8,0.34-1.19c0.32-0.97,0.68-1.93,0.97-2.91c0.13-0.44,0.21-0.92,0.2-1.39c-0.04-1.33-1.14-2.02-2.34-1.48
		c-0.37,0.16-0.71,0.2-1.09,0.13c-1.28-0.23-2.55-0.11-3.81,0.16c-3.67,0.78-6.82,2.55-9.51,5.14c-1.19,1.14-2.18,2.43-2.83,3.96
		c-0.46,1.09-0.71,2.21-0.45,3.39c0.09,0.4,0.23,0.78,0.36,1.24c-0.4,0.15-0.77,0.32-1.16,0.42c-1.21,0.31-2.44,0.39-3.68,0.26
		c-1-0.11-1.99-0.22-2.98-0.34c-0.77-0.1-1.54-0.21-2.39-0.33c0.15-0.16,0.24-0.28,0.34-0.38c1.54-1.49,3.11-2.96,4.62-4.48
		c1.42-1.42,2.79-2.88,4.17-4.34c0.42-0.45,0.73-0.98,0.93-1.56c0.47-1.39-0.04-2.58-1.41-3.11c-0.56-0.21-1.18-0.32-1.77-0.38
		c-1.22-0.12-2.43,0.1-3.63,0.29c-1.88,0.29-3.76,0.56-5.65,0.83c-0.72,0.1-1.44,0.21-2.16,0.24c-0.44,0.02-0.89-0.11-1.34-0.15
		c-0.93-0.08-1.73,0.48-1.92,1.38c-0.22,1.08,0.02,2.11,1.14,2.8c0.69,0.42,1.45,0.64,2.25,0.63c1.33-0.03,2.67-0.12,3.99-0.23
		c0.93-0.07,1.86-0.22,2.87-0.34c-0.23,0.2-0.38,0.35-0.54,0.48c-0.8,0.64-1.59,1.28-2.4,1.92c-2.1,1.66-4.23,3.27-6.18,5.12
		c-0.9,0.85-1.74,1.76-2.4,2.83c-0.39,0.62-0.7,1.28-0.8,2.01c-0.15,1.08,0.61,1.8,1.67,1.59c0.27-0.05,0.54-0.11,0.81-0.17
		c1.62-0.33,3.28-0.38,4.92-0.39c1.59-0.01,3.19,0.03,4.78,0.05c1.46,0.01,2.91-0.1,4.33-0.45c1.96-0.48,3.87-1.09,5.1-2.9
		c0.91,0.3,1.83,0.47,2.78,0.39c1.19-0.1,2.32-0.39,3.41-0.85c1.51-0.64,2.89-1.52,4.22-2.46
		C234.49,103.35,234.88,103.08,235.31,102.78"/>
	<path class="st1" d="M161.45,96.55c0.6,0.06,1.14,0.09,1.69,0.17c1.25,0.17,2.46,0.5,3.54,1.19c1.69,1.1,2.37,2.95,1.8,4.88
		c-0.4,1.35-1.25,2.4-2.26,3.32c-1.72,1.57-3.69,2.73-5.89,3.5c-0.59,0.21-1.19,0.38-1.78,0.6c-0.31,0.11-0.63,0.25-0.9,0.43
		c-0.46,0.32-0.46,0.77-0.01,1.12c0.14,0.11,0.3,0.2,0.47,0.24c0.42,0.1,0.84,0.21,1.26,0.24c0.97,0.08,1.92-0.09,2.86-0.31
		c3.29-0.78,6.28-2.16,8.75-4.51c1.81-1.73,3.22-3.71,3.66-6.25c0.51-2.95-0.2-5.54-2.35-7.67c-1.85-1.84-4.13-2.76-6.68-3.04
		c-1.85-0.2-3.69-0.06-5.5,0.39c-1.53,0.38-3.01,0.89-4.37,1.72c-0.71,0.43-1.35,0.95-1.8,1.67c-0.46,0.73-0.63,1.52-0.37,2.36
		c0.24,0.77,0.76,1.13,1.56,1.04c0.48-0.06,0.96-0.18,1.44-0.28c0.18-0.04,0.37-0.08,0.66-0.15c-0.16,0.24-0.25,0.38-0.35,0.52
		c-0.65,0.96-1.32,1.91-1.93,2.89c-2.85,4.6-5,9.52-6.69,14.66c-1.07,3.27-2.09,6.55-2.56,9.97c-0.13,1-0.2,2,0,2.99
		c0.14,0.69,0.41,1.29,1.15,1.51c0.71,0.21,1.3-0.1,1.75-0.59c0.49-0.53,0.97-1.1,1.33-1.72c0.7-1.23,1.37-2.48,1.93-3.78
		c1.46-3.43,2.86-6.9,4.27-10.35c1.46-3.58,2.89-7.18,4.09-10.87C160.79,100.55,161.46,98.67,161.45,96.55"/>
	<path class="st1" d="M192.47,111.22c0.1-0.11,0.2-0.23,0.31-0.34c1.31-1.32,2.64-2.65,3.94-3.98c1.61-1.64,3.27-3.24,4.67-5.08
		c0.52-0.69,0.99-1.42,1.42-2.17c0.33-0.56,0.49-1.2,0.49-1.86c0.01-1.14-0.61-1.82-1.76-1.83c-0.82-0.01-1.65,0.07-2.47,0.14
		c-1.35,0.11-2.7,0.25-4.04,0.37c-1.33,0.12-2.66,0.25-3.99,0.34c-0.96,0.07-1.92,0.1-2.88,0.14c-0.28,0.01-0.55-0.02-0.83,0.01
		c-1.4,0.14-2.08,1.44-1.39,2.68c0.23,0.41,0.54,0.74,0.97,0.91c0.51,0.2,1.03,0.39,1.57,0.48c1.73,0.28,3.45,0.12,5.16-0.12
		c0.66-0.09,1.32-0.21,1.99-0.32c0.02,0.03,0.04,0.07,0.07,0.1c-0.15,0.12-0.32,0.23-0.46,0.36c-3.31,3.06-6.62,6.11-9.92,9.17
		c-0.92,0.86-1.81,1.75-2.53,2.79c-0.51,0.74-0.88,1.53-1,2.43c-0.16,1.2,0.65,2.26,1.84,2.37c0.38,0.03,0.79-0.04,1.16-0.13
		c0.91-0.22,1.82-0.49,2.73-0.71c2.64-0.64,5.32-1.01,8.04-1.09c2.02-0.06,4.05-0.08,6.07-0.07c1.81,0.01,3.61,0.15,5.42,0.01
		c1.73-0.13,3.43-0.41,5.08-0.94c1.24-0.4,2.41-0.96,3.43-1.79c0.28-0.23,0.56-0.51,0.74-0.82c0.41-0.71-0.05-1.48-0.87-1.48
		c-0.29,0-0.58,0.07-0.85,0.17c-2.19,0.77-4.44,1.12-6.77,1.05c-2.11-0.06-4.17-0.54-6.26-0.73c-1.5-0.14-3.02-0.29-4.52-0.3
		C195.54,110.97,194.03,111.13,192.47,111.22"/>
	<path class="st1" d="M227.79,119.2c0.13-0.29,0.22-0.47,0.29-0.64c0.37-0.82,0.76-1.64,1.12-2.47c0.24-0.57,0.37-1.16,0.32-1.78
		c-0.11-1.36-1.35-2.02-2.51-1.31c-0.34,0.21-0.64,0.52-0.9,0.83c-1.42,1.69-2.64,3.52-3.76,5.42c-0.22,0.37-0.36,0.86-0.68,1.08
		c-0.34,0.23-0.86,0.23-1.3,0.26c-0.97,0.07-1.95,0.19-2.94,0.07c-0.52-0.07-1.07-0.03-1.57,0.09c-0.73,0.17-1.18,0.71-1.35,1.43
		c-0.16,0.71,0.07,1.33,0.63,1.8c0.28,0.23,0.61,0.43,0.95,0.57c0.82,0.34,1.7,0.47,2.59,0.51c0.22,0.01,0.45,0.02,0.67,0.03
		c0,0.11,0.01,0.15,0,0.18c-0.06,0.19-0.13,0.37-0.2,0.55c-1.74,4.44-2.79,9-2.38,13.82c0.05,0.62,0.13,1.25,0.33,1.84
		c0.32,0.96,1.11,1.06,1.73,0.25c0.24-0.32,0.42-0.71,0.57-1.09c0.27-0.69,0.48-1.41,0.75-2.11c1.74-4.68,3.5-9.34,5.24-14.02
		c0.16-0.43,0.4-0.66,0.84-0.8c0.99-0.3,1.97-0.66,2.95-1.01c3.3-1.16,6.56-2.4,9.74-3.87c0.3-0.14,0.6-0.29,0.87-0.48
		c0.34-0.23,0.45-0.57,0.34-0.87c-0.13-0.34-0.41-0.47-0.74-0.48c-0.33-0.01-0.68-0.02-1,0.04c-2.46,0.47-4.93,0.96-7.39,1.45
		C229.95,118.7,228.93,118.94,227.79,119.2"/>
	<path class="st1" d="M207.42,133.15c0.04,0.19,0.06,0.26,0.07,0.33c0.24,2.1,1.35,3.65,3.03,4.84c0.2,0.15,0.45,0.24,0.69,0.33
		c0.53,0.2,1.06,0.21,1.49-0.2c0.45-0.43,0.38-0.97,0.17-1.48c-0.23-0.54-0.29-1.1-0.28-1.67c0.01-2.29,0.42-4.53,0.75-6.79
		c0.17-1.21,0.37-2.41,0.5-3.62c0.05-0.48-0.01-0.99-0.14-1.45c-0.22-0.76-0.89-1.08-1.63-0.83c-0.29,0.1-0.58,0.27-0.8,0.48
		c-0.3,0.28-0.56,0.6-0.8,0.94c-0.45,0.65-0.88,1.31-1.31,1.97c-2.03,3.08-4.75,5.43-7.83,7.39c-0.14,0.09-0.29,0.15-0.43,0.22
		c-0.03-0.08-0.05-0.1-0.05-0.12c0.02-0.1,0.04-0.19,0.06-0.29c0.41-1.54,0.64-3.11,0.57-4.72c-0.03-0.71-0.19-1.4-0.54-2.03
		c-0.38-0.7-0.96-1.15-1.72-1.33c-1.28-0.31-2.45,0.01-3.55,0.66c-0.1,0.06-0.19,0.14-0.27,0.23c-0.35,0.37-0.34,0.8,0.06,1.12
		c0.19,0.16,0.43,0.26,0.65,0.39c0.47,0.27,0.57,0.5,0.45,1.02c-0.04,0.16-0.09,0.3-0.14,0.45c-0.46,1.34-0.93,2.67-1.37,4.01
		c-0.34,1.05-0.53,2.13-0.46,3.25c0.11,1.71,1.07,2.91,2.68,3.22c0.51,0.09,1.06,0.08,1.58,0.01c1.65-0.21,3.05-0.99,4.34-1.99
		c1.4-1.09,2.61-2.39,3.74-3.75C207.06,133.56,207.2,133.4,207.42,133.15"/>
	<path class="st1" d="M183.77,100.52c0-0.26,0.05-0.52,0-0.77c-0.11-0.65-0.17-1.33-0.39-1.95c-0.32-0.87-1.34-1.07-2.04-0.47
		c-0.2,0.18-0.39,0.4-0.49,0.65c-0.26,0.63-0.67,1.15-1.07,1.68c-1.51,1.99-2.97,4.01-4.25,6.16c-1.07,1.8-1.98,3.67-2.28,5.77
		c-0.21,1.49-0.07,2.95,0.64,4.3c0.23,0.44,0.55,0.87,0.92,1.21c0.63,0.57,1.39,0.72,2.2,0.4c0.55-0.22,0.97-0.61,0.92-1.24
		c-0.06-0.77,0.17-1.44,0.49-2.09c0.64-1.33,1.3-2.65,1.97-3.95c0.95-1.84,1.89-3.67,2.58-5.62
		C183.41,103.28,183.78,101.94,183.77,100.52"/>
	<path class="st1" d="M180.64,92.57c-0.02,1.84,1.21,2.83,2.77,2.39c0.47-0.13,0.96-0.37,1.34-0.69c0.57-0.47,1.12-1,1.55-1.6
		c1.45-2,2.86-4.03,4.26-6.07c0.26-0.38,0.47-0.82,0.62-1.26c0.24-0.71-0.16-1.21-0.91-1.19c-0.33,0.01-0.66,0.09-0.98,0.18
		c-2.18,0.62-4.06,1.75-5.74,3.25c-0.9,0.8-1.67,1.71-2.24,2.79C180.94,91.13,180.67,91.92,180.64,92.57"/>
	<path class="st0" d="M116.51,117.14c1.53-0.01,2.75,0.6,3.65,1.82c0.82,1.1,1.29,2.35,1.49,3.68c0.21,1.42,0.36,2.85,0.45,4.28
		c0.13,2.06,0.27,4.11,0.64,6.15c0.26,1.44-0.74,2.61-2.21,2.64c-2.75,0.04-5.46-1.73-6.52-4.27c-0.57-1.37-0.86-2.82-1.13-4.27
		c-0.27-1.51-0.44-3.03-0.39-4.57c0.04-1.17,0.19-2.31,0.7-3.38c0.46-0.97,1.18-1.66,2.25-1.92
		C115.8,117.21,116.16,117.19,116.51,117.14"/>
	<path class="st0" d="M268.58,169.46c0.29-0.8,0.58-1.6,0.88-2.41h0.87v3.18c-0.14,0.01-0.28,0.03-0.49,0.04v-2.5l-0.12-0.03
		c-0.06,0.1-0.15,0.18-0.19,0.29c-0.21,0.59-0.41,1.19-0.63,1.78c-0.07,0.2-0.07,0.49-0.41,0.49c-0.34-0.01-0.32-0.31-0.4-0.51
		c-0.21-0.57-0.4-1.15-0.61-1.72c-0.04-0.12-0.11-0.23-0.29-0.31v2.52h-0.5v-3.2h0.84c0.29,0.79,0.6,1.6,0.9,2.41H268.58"/>
	<path class="st0" d="M266.03,167.02c-0.09,0.7-0.65,0.25-0.93,0.49c-0.02,0.19-0.04,0.37-0.05,0.56c-0.01,0.61,0.01,1.21-0.01,1.82
		c0,0.33-0.02,0.33-0.5,0.35c-0.01-0.24-0.02-0.49-0.02-0.73c0-0.51,0-1.02,0-1.53c-0.01-0.47-0.04-0.49-0.5-0.53
		c-0.1,0-0.21,0.02-0.29-0.01c-0.09-0.04-0.15-0.13-0.23-0.2c0.07-0.07,0.14-0.19,0.23-0.2c0.19-0.03,0.39-0.01,0.59-0.01H266.03"/>
	<path class="st0" d="M235.58,95.16c-0.12,0.27-0.25,0.53-0.35,0.8c-0.27,0.72-0.51,1.44-0.78,2.15c-0.07,0.18-0.21,0.39-0.38,0.48
		c-1.46,0.85-2.96,1.62-4.59,2.11c-0.33,0.1-0.66,0.25-1.1,0.09c0.06-0.2,0.1-0.41,0.18-0.59c0.41-0.91,0.99-1.69,1.72-2.37
		c1.47-1.37,3.24-2.2,5.16-2.71C235.46,95.11,235.5,95.14,235.58,95.16"/>
</g>
</svg>
